<svg width="25" height="25" viewBox="0 0 25 25" fill="none" xmlns="http://www.w3.org/2000/svg">
<path d="M12.5 0C5.46875 0 0 5.64516 0 12.9032C0 21.371 7.42188 25 8.59375 25C9.375 25 9.375 24.5968 9.375 24.1935V22.1774C6.64062 22.9839 5.46875 21.371 5.07812 20.1613C5.07812 20.1613 5.07812 19.7581 4.29688 18.9516C3.90625 18.5484 2.34375 17.7419 3.90625 17.7419C5.07812 17.7419 5.85938 19.3548 5.85938 19.3548C7.03125 20.9677 8.59375 20.5645 9.375 20.1613C9.375 19.3548 10.1562 18.5484 10.1562 18.5484C7.03125 18.1452 4.6875 16.9355 4.6875 12.5C4.6875 10.8871 5.07812 9.67742 5.85938 8.87097C5.85938 8.87097 5.07812 7.25806 5.85938 5.24194C5.85938 5.24194 7.8125 5.24194 9.375 6.85484C10.5469 6.04839 14.4531 6.04839 15.625 6.85484C17.1875 5.24194 19.1406 5.24194 19.1406 5.24194C19.9219 8.06452 19.1406 8.87097 19.1406 8.87097C19.9219 9.67742 20.3125 10.8871 20.3125 12.5C20.3125 16.9355 17.5781 18.1452 14.8438 18.5484C15.2344 18.9516 15.625 19.7581 15.625 20.9677V24.1935C15.625 24.5968 15.625 25 16.4062 25C17.5781 25 25 21.371 25 12.9032C25 5.64516 19.5312 0 12.5 0Z" fill="white"/>
</svg>
