<svg width="24" height="24" viewBox="0 0 24 24" fill="none" xmlns="http://www.w3.org/2000/svg">
<path d="M20.4444 20.4526H16.8947V14.8825C16.8947 13.5543 16.867 11.8474 15.0385 11.8474C13.1876 11.8474 12.9056 13.2881 12.9056 14.7843V20.4519H9.35146V8.99897H12.7654V10.5612H12.8111C13.2881 9.65895 14.4483 8.71023 16.1792 8.71023C19.7799 8.71023 20.4481 11.0809 20.4481 14.1633V20.4519L20.4444 20.4526ZM5.33608 7.43377C4.19087 7.43377 3.2729 6.50755 3.2729 5.36683C3.2729 4.22987 4.19462 3.30515 5.33608 3.30515C6.47755 3.30515 7.40227 4.22987 7.40227 5.36683C7.40227 6.50755 6.47755 7.43377 5.33608 7.43377ZM7.11653 20.4526H3.55489V8.99972H7.11653V20.4526ZM22.2263 0H1.76994C0.792725 0 0 0.773226 0 1.7302V22.2698C0 23.2268 0.792725 24 1.76994 24H22.2226C23.1983 24 23.9993 23.2268 23.9993 22.2698V1.7302C23.9993 0.773226 23.1983 0 22.2226 0L22.2263 0Z" fill="white"/>
</svg>
