<svg width="31" height="24" viewBox="0 0 31 24" fill="none" xmlns="http://www.w3.org/2000/svg">
<path d="M3.58279 4.89645C3.62081 4.52726 3.47674 4.15808 3.2016 3.90795L0.381191 0.506253V0H9.14757L15.926 14.8634L21.8849 0H30.2451V0.506253L27.8319 2.82041C27.6258 2.97649 27.5188 3.23962 27.5628 3.49575V20.5043C27.5188 20.7604 27.6258 21.0235 27.8319 21.1796L30.1891 23.4937V24H18.3272V23.4937L20.7724 21.1236C21.0105 20.8854 21.0105 20.8104 21.0105 20.4482V6.70335L14.2131 23.956H13.2936L5.38969 6.70335V18.2651C5.32066 18.7524 5.48374 19.2406 5.82791 19.5908L9.0045 23.4427V23.949H0V23.4487L3.17659 19.5908C3.51376 19.2406 3.67084 18.7464 3.58279 18.2651V4.89645Z" fill="white"/>
</svg>
