<svg width="30" height="24" viewBox="0 0 30 24" fill="none" xmlns="http://www.w3.org/2000/svg">
<path d="M29.4708 2.85952C28.3848 3.33564 27.2221 3.66321 25.9968 3.81176C27.2471 3.06159 28.203 1.87497 28.6588 0.461361C27.486 1.14418 26.1887 1.63875 24.8092 1.91834C23.7093 0.740946 22.137 0 20.3922 0C17.0473 0 14.3363 2.71003 14.3363 6.05029C14.3363 6.53103 14.3945 6.99239 14.495 7.42976C9.46344 7.19446 5.003 4.77693 2.01984 1.1248C1.49573 2.0143 1.19769 3.04775 1.19769 4.17255C1.19769 6.27728 2.26897 8.12272 3.88835 9.20784C2.89827 9.17924 1.96632 8.90519 1.14971 8.45398V8.52687C1.14971 11.4621 3.23506 13.9091 6.00323 14.4664C5.4985 14.6002 4.95963 14.6777 4.41246 14.6777C4.02399 14.6777 3.65306 14.6399 3.28304 14.5716C4.06182 16.9744 6.29112 18.7239 8.94856 18.7765C6.88258 20.3958 4.2639 21.361 1.44221 21.361C0.961476 21.361 0.481661 21.3379 0 21.2798C2.69158 22.9961 5.86851 24 9.30011 24C20.4346 24 26.519 14.7774 26.519 6.79031C26.519 6.53564 26.519 6.27636 26.4997 6.01615C27.6872 5.17001 28.7151 4.09781 29.5271 2.88258L29.4708 2.85952Z" fill="white"/>
</svg>
